<mxfile host="app.diagrams.net" modified="2023-06-04T08:11:31.182Z" agent="Mozilla/5.0 (Windows NT 10.0; Win64; x64) AppleWebKit/537.36 (KHTML, like Gecko) Chrome/114.0.0.0 Safari/537.36" etag="9qBz768L3TTLoqwhvTPv" version="21.3.7" type="device">
  <diagram name="Page-1" id="U3zzYYnVNlLrTZ7MQzQW">
    <mxGraphModel dx="1562" dy="892" grid="1" gridSize="10" guides="1" tooltips="1" connect="1" arrows="1" fold="1" page="1" pageScale="1" pageWidth="850" pageHeight="1100" math="0" shadow="0">
      <root>
        <mxCell id="0" />
        <mxCell id="1" parent="0" />
        <mxCell id="ZNn2ylUQNmcWceT_m4_r-1" value="" style="shape=image;verticalLabelPosition=bottom;labelBackgroundColor=default;verticalAlign=top;aspect=fixed;imageAspect=0;image=data:image/png,iVBORw0KGgoAAAANSUhEUgAAAskAAABBCAYAAAAjSTlxAAAAAXNSR0IArs4c6QAAAARnQU1BAACxjwv8YQUAAAAJcEhZcwAADsMAAA7DAcdvqGQAABhOSURBVHhe7Z0LkBXFucdbRY0aQK/xUT7X1cIH92oURQGNTywRw0UQjKVFBS2XWyq5Uj4KjY/4xIhcMSpVQtRoUaUigloCRqwCY3goPhLr6pX1AaJGKlcRgSTqcnPu/Hvnv/S2PbtzZufsmXP8/6q6ek7PTD+/r/ub7p45W7W0tJSMEEIIIYQQoo2tY18IIYQQQggRIyNZCCGEEEIIDxnJQgghhBBCeMhIFkIIIYQQwkNGshBCCCGEEB4ykoUQQgghhPCQkSyEEEIIIYSHjGQhhBBCCCE8ZCQLIYQQQgjhISNZCCGEEEIIDxnJQgghhBBCeMhIFkIIIYQQwkNGshBCCCGEEB4ykoUQQgghhPCQkSyEEEIIIYSHjGQhhBBCCCE8ZCQLIYQQQgjhISNZCCGEEEIIDxnJQgghhBBCeMhIFkIIIYQQwkNGshB1zOr7TzTbbrutuXRhjzhECFEtpI9C1BYykoWoU3r0WGgmX77UHk+/9R6zuocGZiGqhfRRiNpDRrIQ9cqCp810M9A0NTUZs3SWmfd+HC6E6H6kj0LUHLkayUuWLLFLSUOHDo1Duo9qpg2QNlyRuOuuu2ye4JO86qna9Q1Y58gLCZW5VliwYIE57rjj2sqF4yeeeCI+Wx49eqw299w63ZiBo81VDww3TWapuXzygvhsetC+fh13F9VMu8hyhDzNmDEj/pUfSWV+6623EvW8UnkpAijbwQcfbOsE7vzzz88si3noY7X7XNZDNahm2t8Xqi1fefHFF1+Y3Xff/Tv9WFY0kyxEAYAxPGzYMPP666+bfv36WYfjCy64wFx22WXxVWXw/jwzaynG5KGmYfNgM7wpCpv+tFmoJd6aBh3/NddcY7766qs4pPJAFl944YX41xaqkZfuAjqHsn344Yfm9NNPN42NjWbWrFnmpJNOyvbgKn0UouLAQIaR/+WXX8YhXadujORBgwaZlpYWM2/evDhEhKj3erryyitt+eDXCqtWrbLG8C677GIWL15sli9fbh2MZIQ98MADZc9gLZh8uVlqBprRQw+yv4e0jsrm1ntqZ40XMoq2hMyKylOLulMJYARD5/Bw0NzcbOVw5cqVZubMmfb8+PHj7WBcDvWgj5ANOCGKCFe8MG7miWaShagyU6ZMsf7VV1/dziA8/PDDzb333muPp02bZv004AWhp6dHB03XmUsbNrcGDsESL7ZCztMLQ0J0wA033GB96OUBBxxgj8G5555rxo0bZ2ep5syZE4d2jvRRiMqBB1asap122mm5G8ig24xkzJZhCQt7Rbi/qLM9XjiHa3g99mhi3yb3zrh7TpL20zCMFck9ZsgH8oN85QnSuf7669vKifTcfBKex9NPCMxm4HympfYOqHQ94X7uq0Xb+bBNWf408aMuGCeuD9UnwTlc517jyosvh2wf5LtazJo1y/pY1vXBwAxwTdo8vn/PrcaOycOHtAZEbN482Fw1dWA0Kl9uMmxNDuK2S5q6TJIthEP2EObCMLQfwf0MoyzhN1xX9nB3BNJxy4k0fb3FvlyeS4Llztrn4F5sAQDw8Rv1wby59USYZmjfsH8f6xa++5vgmL/hh/LiwvZJo+tMC/eg/+T1OO5O0K7YYoEVnNAKxnnnnWf9Bx980Ppp6A599HULrjN9SOoLAX6Hxgg4F1dv/f4AbR+Sya6AchZtfKWcs9yogyQ7hfh1D9dZfWW5J0veQjBtV74q0b5ZePjhh20fhIfXSZMmWZcrLS0tpbzc4sWLS1GUpWiwbxf+7LPPlqJOx56Dj/ONjY32N9zMmTPbXQ+HMJ7HtbiHcURP89aPKqPt+qS0GdavXz97DB+/cQyHONeuXdvuniyO8SWlg9/u9SzDxIkT24XTjR492p5H3YXOp3GoH8RRiXpKise936/XjtoUfvQU2O56ONYT42T8qDeGIy+8vqMyIy6m55aVv3l9Z473pHGh+12HOursWraDW84kVyq9V4rG3uj6ptL86Fe7c+9NLUXDcsk0zW8X3pFLSpvhcKhH/7ff9vjt1zd/w+exe08obbYv2x/tievc/sRt+6yO6TBfoXRc3Wxubm4L98sOB9nGOcTnn0vr3PSpP9Ap1oVfbjdP6E/cc5Q7lIthLDPjQdxsAzgcw+FcUl4YV7m6zrRxHXzUE+6DzrrX+Y73pXF+/YQc2hTXspwhx/hC53yXpz6yH/PzhnZmW/A85RYuVIeof7c9cA/jYJ/rp8P43DBcgzDKoN/WcGn6rc4c42K54DNt/navZxkqOb7CdSTnzIMvd1nsoSz3lJu3JPnqSFbgQmknOd6TxoXuD7lp06bZ8kAP8Jt9Qhp9T+MqbiQj427DuNe7jegqEjpw3oMKcMNd5U/TwLwW8blpuB2Lm0ZWx3TgXMVzBczNLztj5IFhdKEBLIsLCUte9RSKh4qHNvINBRoJcL5SMZ9Ix72PdYQ8uYOqW6dwbn47KjMc8kZl8s+5aXTkeH0aF7rfdUzf7+RdhzrGNa5cJbnS/KbWtAMDb0cDdpJj2m4duwaqW2eufvryxXbx69/tA+Dce0JpMx44yJsrLzzXVb2Bc9NBPtx0KOdIxw1n2UODBuusq30N8wWfYZQhv87duvXrhOdc4zkUNxzjcMPgkq7PousMD93TkXPv68z5+Qw5xpdkXMExPjf/SS5PfUxqZ8odfDdPbj/pl5265esQZTuUDsPdMMYD54/VNET9B7QsjmnAFWV8RTxMO62dksUeynJPlryF5AvXc/z300YdM41qjJ1Jjjrsy3xWV/HtFg899JCdBo8q3tx3331xaCtYSo4KYo+jhrQ+wPQ57okaxVx88cVxqDG77rqrfYkiapg4JD3Y2+kun2GvGeOOhMP6eYDyDBmyZVkN+0rnzp1rj90lT1wTCZ9d2vOXhF588UXro/zdTdZ6wlIMX3ZBG6GtXKZPx4Jja/1wCwHBi0KQD9QFyw6iDsD6yBPqkeD4kUceiX+Vx2OPPdZunyHKirTBK6+8Yv3OiBQntUuLX18h3n777fgomQV28+NAM/WqLTJINm9uMENHD4yOsr8whOXOO+64wx5Drt12cfUTX0OgXOOeO++80x779e/2AeUA3UF/4tYbXzhD35G0zFouKMujjz7aLh2kC5lBOq68TpgwwfrR4GF9l1nxlpoRI0ZYP0+or/4XKF5++WXrQyeRV3ebA8/haw15k0XXCfLq39MRfNkwjSvnhcTevXvHR8m8++678VEyldZHLJ1HBoqVU7/fdcce6h/AEjlkJaRDlO1yCY3Vl1xyiT1euHCh9fOgSONrFjsliz1UTRsKdYU6DKWNOsZ7NIA63xkhvUxyRaHiRvIbb7xh/aS9PyNHjrQ+BxGwaNEi6/t7ogAaOXoyjX+lp3///vHRFgYMGGD99evXWz8Pxo4dGx9tAYMYhNJXWJbjySeftD7hIDtq1CjrdydZ6gn7mmAgo1MKGciA7cv29hk+fLj1XQOD92BDvg8UNK2iE+TPNdDIySefbP16+JTV4PvRwby05QUhj4ZLX7Id0EuXNsQh5UHDAMaM+zBFXP2k0YZ70GHjnlD9J8lERwwePDg+ag8H+I0bN1q/q2CQCclzSF4pp5BbPBgQ6Dx0H/USiisPWOfuHkEYJ5D5c845x/5+9dVXrQ9ouIR0q6tk0XVy9NFHx0f1QaX1kQ/OSXIKHYUMQP8oG8uWLbN+0jg6ZsyY+Cg9J5xwQny0BfYPSDsvijS+ZrFTsthD1bShWFdJMsH+1k273qi4kcyBcu+997a+jztoUsB5T8hgAw0N5XcoocE5b6CoSYPgMcccY3138KaSuk/aGFwhcOjY3Fm67qLcelqxYkXbCzzoDDds2GCPXVAmdpRQdCiu7/giDA1xd7DvrE7TctBBrZ9fEtnhAHvggQdaPwT1880337Q+70kybLPoZpY+IAv77bdffNSeww47zPrug6M7+LgGKQdpfAe7UnBGmHUNnYPRgDrnQy5njzGjjHNJD41dIYuuu3RXu9YLNIaS5BSw33vnnXesz3sGDsQs9nfZZ5994qP0ZLmnXIo2vmaxU7piD1XDhvrggw+sf/fddwd12R3765Vu+7pFGoH0Z3+SFKKolGu0oU6grFgu41Iol4LSPulVGygHOi88UeL4uuuui89swV2WhPKGHOogBJ9UiwTf7k3j0oLOuzP69u0bH1WfI488Mj5KxjeC0ixhFw0aw2mhIYwVFYJBGVRi1pYce+yx1qcBRCMdM3yc0aOxUMk+piu6ngWsYoX0LuTSvskP0qwqHXLIIfFR9Ukjp36ZevXqFR/VBkUdX7PYKVnsoWrYUNRV+CFdhiuHkF4muaLQbUayuwySRM+ePeOjVtIYDkWiXIEBVFYqb15LQd0FDGTknfuVYBD4n4XZa6+94qPO9yS5xgXIUqe1BAfajgwH6kGRBjXOEnfEzjvvHB+1UovbWTgzmxZ3ywVAv1fprRaABgH1ZenSpdY/9NBDrY+tLsgHZInvFiTNJHaFruh6EeCDKJe4fdwxqUiTOJwl7gj/ITW06ldkijq+ZrFTsthD1bCh0KcA9BkhHXZdvVJxI5kzgZ9++qn1fdyXSfikhA4duEuWLqtXr46PikeSUGJbAnAHEUBl5RLkrCputcgCnu6RVyz58AWCCy+80PoktBzUGe5+16Q6ff/96vxbVaiDSHKdgYGWHZGrCy40oIswc8Wley7DhaB+craZhoe77OmSVO4ikGTY0yjxtyugPTEwY1UFL1VxYK/kVgvC7Sx4SEVd4wGW/QjPoU9lOyQtxXaFLLreFfJ+cY86ltS3uHvyiwDfp1izZo31Q7AsnG0+6qijrM8HKZ9PPvkkPioeRRpfs9gpWeyhatpQ/ladrhLSyyRXFCpuJFMh/TcjyVNPPWV9d/mDL5qEZhqgJBD0osInVhd8uByDJpTTH1Qh1BBoGEL88Hs5b2EXibFjx9oyYsbKX9pk+ya9BYvr8ZF09z7egzd1fWAIIJ16gAYMdcGFMoGOsggzV+7Mt79iAFz9ZOcOYwwGG+4JGcShcheFpL6Gchp6YQl/MQ5ghMyePduWvZwvNmSFeXn++edtXbt7wDlrjC/GoC+qpDxl0fWigP6ZfVhIvvF1FsAxqtrwARQvTocMSPaTkEFOPJxxxhnWT5JtfM2lqBRpfM1ip2Sxh6ppQ/El2yRdhXxhawT+WKReqbiRjFlFKChmVPy3MyG03PjNz8UAGFu4B4rvftYFjXvjjTdahSgq+F9/dwYFxwgDN998s/V9LrroIutjczyo5N7FSoJBd+rUqfYY7eoaRGxfv00B5QDtyplKwHvw+SLMyhHUqT9bXctcccUV1kcd+OWk7Fx77bXWrzZo44kTJ9rjs88+u52sQz/xMgeNMM5q4B5+Kgj/WObKBTpZ9/NURQMGht9v4TfCMSiHjF9+eQUzthic3cErL0Iz3Ow3+Ik+9/NunDXm4MgZyHIIGWHAz0sWXS8S7KfRx7jyjbyjTGhbjFFFALIGIxD1Cd1z2wh5h44C6h+AsQz9pGy796C9irzFrUjjaxY7JYs9VE0bCp+sRDwhWXHlK807KrVKxY1kPNnhm7ZsMMwgQJnx94acccHshru8jkEV38YFaHhci3uwvw5xcCmhiGDgRP7w949w7MDwiZ6k2SQqLQZUXO8/DdcS6LQ5g+gqNNqX3z1229SVAxhfrhzgGN9+RP1huRr1iXtQR5wdqQfQ3qwbv5yUHbdeqs0tt9xi2xh5o6wjv3vuuWebDPuzUei0EY7zffr0sdfjPhhy0Jmigjy7/RZ8/Ibs+Z+WcoFhjLIC3JcX3FcKQxjxYpAk6DeRX8KX+YB/jjqaBuoZZqPdsiTlJYuuFwn009A59DGoM+Qdssq8Y2xCfRYFzG5DhyBv0EHmF3ln/+HPnmJrHMdkjKtsH7SXKydFo0jjaxY7JYs9VE0bCvFg9t6XFbfu4dfq6ncauuXFPRhO+KMGCDLAExEqFwMJNoSHhBthOIdr0FnhHigIwoqy1BUCyxvsYKmUEOCkpRIAJaDQ8qm3lmFZ0WbuzKjbpmh/nEc9UQ5gfPngQ+h42QL1g/rEPby+3Lediwzqxi9nGtmpFpBz5M3PLwZfnPONCPxGOM5Dj9n2MJZCS4JFAX0N2oV5BtBv9GecKQ+BgQRgcEH/lxfQB87kIz/8rBtxt1j4+eM3iJGnjvLug0ES5Wc/zJWAjvKSRdeLBHTOlVXIOPMeGq+qCcYPbO3x84sHoaT+A+3vj8kAkxJTpkyxx0WkaONrFjsliz1UTRvKlRX0HYjHrfvly5fHV9YnW7W02L8KrCkwQ4mnGjRQ0TqsrODJDILX3NxslVqI7wswujC7jA585cqVcWhtg4dDrApgYCniQ44QSWBFADOU9SS71Rhfi2yn1KMNVSlym0n+fNttTWnduviXMaWNG82m6KkN4d/87ndxaLrwZ372MyvUGGhC12Ov3w8jf8Djj2eKv2jhn0yebBUYT3wNP/pRt6Wr8O+Gg3/ceaf59pln4l/fX1A3een0f/Tu3fZyh38938A+/sc/zhx/0cL/Es/GNTU1dWu69RQOpIutoG7y0sX//uUv7fI7XsYKXY8VAYyvF/75z5niL1p4pcbX5ccea8Nfi98pAe7128+ZY8OwRSFL/F0JR9vChnohykPo+iW//725J/JPjR6G8kp30y9+EYfWF7nNJKOCttpxR7NT/NLIxosvNlv16mW2aWw0X0cDxi4ftn6JIE34ultuMQ1ffGGn85/r08f8YLfd2q6//swz7RPQjJ49zTljx2aKvwjhn48ZY8v1zR57mC9vu80c+ve/26e6M198sSr5UXhr+LfPPWf+Nn686RV1IttEsvd9Jk+dXnXlleaIzZu/I+MbJk0y//btt3bp8PUTTzSNRxyRKf4ihFOnP4qO/+83vzGjovOYGa9Wfmo9XLq4hTx1cdOvf232+uwzu3T+2k9+Yv5l//3brn8h0kfMIv9XdM/In//c7BI9uJYbfxHCu2N8fW/tWvPA88+bCdttZ3Zbs8ZuKeP1cyOj/IglS6rWB7AdH40eCgaPGGF2Ouywtusxi3xwZENt3bu3ufCmm3JJd4dx48zfJkww20T99063327P1Qu5Gcn/jATmq1NPNT0iw3abAQPMN9HTW1cq/on5882Kv/7VXBr9viZ+yeTfX3rJfP7NN+Z/o85iYmQk7xF/zzFL/KHwOQ0N5t1PP7WDHNLl1nZ0GPgfm1D44YMGmf6jRpWd7leRIO0blQ8gnh12392cf+2137n+s02bzJTZs1Pnh+F37LtvWflReC/zg3PPNRsjt9O995rtzjrLnvs+k6dO/8+QIWZuNEBBNv+zRw9z1Smn2Delz48GE8jsvpEenRUNNFnjD4XjyxlvnHRSp7rih4+NDJIs6X48caLp+/XXNhzxnDxsmDkwKqd//bOLFpk/fPRRWTp9+E9/agb96U9l5aeWw6WL7cl7fF3+9ttm9ooVVtaaojhh4I1atsz8ZeNGK4M3RL/3jtLk9Vna0A9fFuV70WuvlaWLMOBHRMZXuemmHV9x/RXRA205uojwm6L49oxsBczWsg/b4ZBDzNDVq83xO+xgH/rv3357c/rIkWaP/v3Lzn8e4VPnzjXDPv7Y5h/70y+K2nzV55+b5siGGr/11uafUftjv3Fe6ZbWrzfrjz/e7Hj11Wb76CGlboCRnJf7+s03S+tGjSp9FtXXphkz2sK/Xbeu9OWYMWWFfzZ6tA2fuP/+MOKt+9eGhtKCPn1yiT8U/vhvf1t6+aijbPjskSNLkyZNsu6uX/0qMXzlGWdkSnft3XeXoid5W64xI0a0lde/fs3ZZwfT7Syf5eZH4a3hG267rS1cLl+dpq5ctOOObTo97JRTSm+ccEIu8fvhzc3NqXTFD8+aLuJBmRobG21fknQ9yyud7jhcutje5amLDL+1b982Xdxn551Lz0RjbJ7xu+F/mD+/bF3M2jekHV95fbm6uOr2220ca9euteEzd93Vhp8XOej/uHHjSu9F7VVO/VQiHPnv16+frYcfRu6hnj1tOPOfNp404XD/+OMfSxsmT24XVuuuJl/cE0IIIYQQopJ0yyfghBBCCCGEqCVkJAshhBBCCOEhI1kIIYQQQggPGclCCCGEEEJ4yEgWQgghhBDCQ0ayEEIIIYQQHjKShRBCCCGE8JCRLIQQQgghhIeMZCGEEEIIITxkJAshhBBCCOEhI1kIIYQQQggPGclCCCGEEEJ4yEgWQgghhBDCQ0ayEEIIIYQQHjKShRBCCCGE8JCRLIQQQgghhIeMZCGEEEIIITxkJAshhBBCCNEOY/4fEtbzJY46ZRAAAAAASUVORK5CYII=;" vertex="1" parent="1">
          <mxGeometry x="200" y="260" width="713" height="65" as="geometry" />
        </mxCell>
        <mxCell id="ZNn2ylUQNmcWceT_m4_r-2" value="" style="ellipse;whiteSpace=wrap;html=1;fillColor=none;" vertex="1" parent="1">
          <mxGeometry x="200" y="252.5" width="240" height="80" as="geometry" />
        </mxCell>
        <mxCell id="ZNn2ylUQNmcWceT_m4_r-3" value="" style="ellipse;whiteSpace=wrap;html=1;fillColor=none;" vertex="1" parent="1">
          <mxGeometry x="460" y="252.5" width="210" height="80" as="geometry" />
        </mxCell>
        <mxCell id="ZNn2ylUQNmcWceT_m4_r-4" value="" style="ellipse;whiteSpace=wrap;html=1;fillColor=none;" vertex="1" parent="1">
          <mxGeometry x="690" y="256.25" width="210" height="72.5" as="geometry" />
        </mxCell>
        <mxCell id="ZNn2ylUQNmcWceT_m4_r-5" value="&lt;font style=&quot;font-size: 25px;&quot;&gt;a&lt;/font&gt;" style="text;html=1;align=center;verticalAlign=middle;resizable=0;points=[];autosize=1;strokeColor=none;fillColor=none;" vertex="1" parent="1">
          <mxGeometry x="300" y="212.5" width="40" height="40" as="geometry" />
        </mxCell>
        <mxCell id="ZNn2ylUQNmcWceT_m4_r-6" value="&lt;font style=&quot;font-size: 25px;&quot;&gt;b&lt;/font&gt;" style="text;html=1;align=center;verticalAlign=middle;resizable=0;points=[];autosize=1;strokeColor=none;fillColor=none;" vertex="1" parent="1">
          <mxGeometry x="545" y="216.25" width="40" height="40" as="geometry" />
        </mxCell>
        <mxCell id="ZNn2ylUQNmcWceT_m4_r-7" value="&lt;font style=&quot;font-size: 25px;&quot;&gt;c&lt;/font&gt;" style="text;html=1;align=center;verticalAlign=middle;resizable=0;points=[];autosize=1;strokeColor=none;fillColor=none;" vertex="1" parent="1">
          <mxGeometry x="780" y="216.25" width="40" height="40" as="geometry" />
        </mxCell>
      </root>
    </mxGraphModel>
  </diagram>
</mxfile>
